<svg width="20" height="19" viewBox="0 0 20 19" fill="none" xmlns="http://www.w3.org/2000/svg">
<path d="M2.81681 18.5815C4.37249 18.5815 5.63361 17.3294 5.63361 15.7849C5.63361 14.2403 4.37249 12.9882 2.81681 12.9882C1.26113 12.9882 0 14.2403 0 15.7849C0 17.3294 1.26113 18.5815 2.81681 18.5815Z" fill="#101115"/>
<path d="M13.9361 15.7378L16.9681 12.7261L20 15.7378L16.9681 18.7496L13.9361 15.7378Z" fill="#101115"/>
<path fill-rule="evenodd" clip-rule="evenodd" d="M9.78824 2.50084C6.45378 2.50084 3.74454 5.20336 3.74454 8.54454V10.837H1.25042V8.54454C1.25042 3.82521 5.07563 0 9.78824 0C14.5008 0 18.3328 3.82521 18.3328 8.54454V10.837H15.8319V8.54454C15.8319 5.21008 13.1294 2.50084 9.78824 2.50084Z" fill="#101115"/>
</svg>
