<svg width="23" height="14" viewBox="0 0 23 14" fill="none" xmlns="http://www.w3.org/2000/svg">
<path d="M0.636364 1.27273C0.28491 1.27273 0 0.987818 0 0.636364C0 0.28491 0.28491 0 0.636364 0H22.2727C22.6242 0 22.9091 0.28491 22.9091 0.636364C22.9091 0.987818 22.6242 1.27273 22.2727 1.27273H0.636364ZM0.636364 7.63636C0.28491 7.63636 0 7.35145 0 7C0 6.64855 0.28491 6.36364 0.636364 6.36364H22.2727C22.6242 6.36364 22.9091 6.64855 22.9091 7C22.9091 7.35145 22.6242 7.63636 22.2727 7.63636H0.636364ZM0.636364 14C0.28491 14 0 13.7151 0 13.3636C0 13.0122 0.28491 12.7273 0.636364 12.7273H22.2727C22.6242 12.7273 22.9091 13.0122 22.9091 13.3636C22.9091 13.7151 22.6242 14 22.2727 14H0.636364Z" fill="black"/>
</svg>
