<svg width="32" height="32" viewBox="0 0 32 32" fill="none" xmlns="http://www.w3.org/2000/svg">
<rect width="32" height="32" rx="8" fill="#8247E5"/>
<path d="M20.1149 13.3029C19.8225 13.1358 19.4465 13.1358 19.1123 13.3029L16.7728 14.6815L15.1854 15.5587L12.8877 16.9373C12.5953 17.1044 12.2193 17.1044 11.8851 16.9373L10.0888 15.8512C9.79634 15.6841 9.58747 15.3499 9.58747 14.9739V12.8851C9.58747 12.5509 9.75457 12.2167 10.0888 12.0078L11.8851 10.9634C12.1775 10.7963 12.5535 10.7963 12.8877 10.9634L14.6841 12.0496C14.9765 12.2167 15.1854 12.5509 15.1854 12.9269V14.3055L16.7728 13.3864V11.9661C16.7728 11.6319 16.6057 11.2977 16.2715 11.0888L12.9295 9.12533C12.6371 8.95822 12.2611 8.95822 11.9269 9.12533L8.50131 11.1305C8.1671 11.2977 8 11.6319 8 11.9661V15.893C8 16.2272 8.1671 16.5614 8.50131 16.7702L11.8851 18.7337C12.1775 18.9008 12.5535 18.9008 12.8877 18.7337L15.1854 17.3969L16.7728 16.4778L19.0705 15.141C19.3629 14.9739 19.7389 14.9739 20.0731 15.141L21.8695 16.1854C22.1619 16.3525 22.3708 16.6867 22.3708 17.0627V19.1514C22.3708 19.4856 22.2037 19.8198 21.8695 20.0287L20.1149 21.0731C19.8225 21.2402 19.4465 21.2402 19.1123 21.0731L17.3159 20.0287C17.0235 19.8616 16.8146 19.5274 16.8146 19.1514V17.8146L15.2272 18.7337V20.1123C15.2272 20.4465 15.3943 20.7807 15.7285 20.9896L19.1123 22.953C19.4047 23.1201 19.7807 23.1201 20.1149 22.953L23.4987 20.9896C23.7911 20.8225 24 20.4883 24 20.1123V16.1436C24 15.8094 23.8329 15.4752 23.4987 15.2663L20.1149 13.3029Z" fill="white"/>
</svg>
