<svg width="22" height="23" viewBox="0 0 22 23" fill="white" xmlns="http://www.w3.org/2000/svg">
<path d="M21 15.4444H17.6667C17.0773 15.4444 16.5121 15.6786 16.0953 16.0953C15.6786 16.5121 15.4444 17.0773 15.4444 17.6667V21M21 21V21.0111M11 5.44444V8.77778C11 9.36715 10.7659 9.93238 10.3491 10.3491C9.93238 10.7659 9.36715 11 8.77778 11H5.44444M1 11H1.01111M11 1H11.0111M11 15.4444V15.4556M15.4444 11H16.5556M21 11V11.0111M11 21V19.8889M2.11111 1H5.44444C6.05809 1 6.55556 1.49746 6.55556 2.11111V5.44444C6.55556 6.05809 6.05809 6.55556 5.44444 6.55556H2.11111C1.49746 6.55556 1 6.05809 1 5.44444V2.11111C1 1.49746 1.49746 1 2.11111 1ZM16.5556 1H19.8889C20.5025 1 21 1.49746 21 2.11111V5.44444C21 6.05809 20.5025 6.55556 19.8889 6.55556H16.5556C15.9419 6.55556 15.4444 6.05809 15.4444 5.44444V2.11111C15.4444 1.49746 15.9419 1 16.5556 1ZM2.11111 15.4444H5.44444C6.05809 15.4444 6.55556 15.9419 6.55556 16.5556V19.8889C6.55556 20.5025 6.05809 21 5.44444 21H2.11111C1.49746 21 1 20.5025 1 19.8889V16.5556C1 15.9419 1.49746 15.4444 2.11111 15.4444Z" stroke="#f8f8f8" stroke-width="2" stroke-linecap="round" stroke-linejoin="round"/>
</svg>
