<svg width="40" height="40" viewBox="0 0 28 22" fill="none" xmlns="http://www.w3.org/2000/svg">
<path d="M21.1667 21H24.0833C24.8569 21 25.5987 20.6927 26.1457 20.1457C26.6927 19.5987 27 18.8569 27 18.0833V15.1667M27 6.83333V3.91667C27 3.14312 26.6927 2.40125 26.1457 1.85427C25.5987 1.30729 24.8569 1 24.0833 1H21.1667M7 6.83333V3.91667C7 3.14312 7.30729 2.40125 7.85427 1.85427C8.40125 1.30729 9.14312 1 9.91667 1H12.8333" stroke="#101115" stroke-width="1.5" stroke-linecap="round" stroke-linejoin="round"/>
<path d="M3.07082 14.7584C5.51699 12.4139 9.483 12.4139 11.9292 14.7584L12.2236 15.0406C12.3459 15.1579 12.3459 15.3479 12.2236 15.4652L11.2165 16.4304C11.1553 16.489 11.0562 16.489 10.995 16.4304L10.5899 16.0421C8.88339 14.4065 6.1166 14.4065 4.41008 16.0421L3.97621 16.4579C3.91508 16.5166 3.81594 16.5166 3.75476 16.4579L2.74769 15.4927C2.62535 15.3754 2.62535 15.1854 2.74769 15.0681L3.07082 14.7584ZM14.0119 16.7547L14.9083 17.6138C15.0306 17.731 15.0306 17.9211 14.9083 18.0383L10.8668 21.9121C10.7444 22.0293 10.5461 22.0293 10.4238 21.9121L7.55539 19.1628C7.5248 19.1335 7.47523 19.1335 7.44464 19.1628L4.57629 21.9121C4.45398 22.0293 4.25566 22.0293 4.13336 21.9121L0.0917314 18.0383C-0.0305771 17.921 -0.0305771 17.731 0.0917314 17.6138L0.988043 16.7546C1.11035 16.6374 1.30866 16.6374 1.43096 16.7546L4.29945 19.504C4.33 19.5333 4.37957 19.5333 4.41015 19.504L7.27847 16.7546C7.40078 16.6374 7.5991 16.6374 7.7214 16.7546L10.5899 19.504C10.6205 19.5333 10.67 19.5333 10.7006 19.504L13.569 16.7547C13.6914 16.6375 13.8896 16.6375 14.0119 16.7547Z" fill="#3B99FC"/>
</svg>
