<svg width="195" height="41" viewBox="0 0 195 41" fill="none" xmlns="http://www.w3.org/2000/svg">
<path d="M3.00443 37.8973C1.16804 36.0668 0.245911 33.6314 0.245911 30.591V12.3959H6.37771V30.3317C6.37771 31.8558 6.87424 33.05 7.85942 33.9299C8.84461 34.8098 10.1766 35.2497 11.8396 35.2497C13.8809 35.2497 15.5123 34.6605 16.7261 33.4899C17.9398 32.3115 18.5625 30.811 18.6019 28.9805V12.3959H24.7337V39.8614H19.792L19.327 35.8704C18.531 37.3552 17.3487 38.5258 15.7882 39.3664C14.2277 40.207 12.4937 40.6391 10.5864 40.6391C7.36289 40.6391 4.83293 39.7278 2.99655 37.8894L3.00443 37.8973Z" fill="white"/>
<path d="M30.9758 12.3959H35.9175L36.4377 16.4419C37.3046 14.9885 38.5736 13.8179 40.2366 12.9145C41.8996 12.0188 43.7359 11.5632 45.7457 11.5632C48.6934 11.5632 51.05 12.4824 52.8154 14.3129C54.5809 16.1434 55.4636 18.5945 55.4636 21.6742V39.8692H49.3318V21.9884C49.3318 20.4329 48.8431 19.1994 47.8737 18.2803C46.9043 17.3689 45.5644 16.9054 43.8699 16.9054C41.8917 16.9054 40.2838 17.5025 39.0307 18.6966C37.7854 19.8908 37.1391 21.3992 37.1076 23.2297V39.8692H30.9758V12.3959Z" fill="white"/>
<path d="M61.6033 7.54865C60.8388 6.77088 60.4604 5.82813 60.4604 4.7204C60.4604 3.61267 60.8388 2.68563 61.6033 1.92358C62.3678 1.16152 63.2978 0.784424 64.4091 0.784424C65.5204 0.784424 66.4977 1.16152 67.2464 1.92358C67.9951 2.68563 68.3656 3.62053 68.3656 4.7204C68.3656 5.82027 67.9951 6.81016 67.2464 7.57221C66.4977 8.33427 65.5598 8.71137 64.4091 8.71137C63.2584 8.71137 62.3599 8.32641 61.6033 7.54865ZM67.4828 39.8614H61.3511V12.3959H67.4828V39.8614Z" fill="white"/>
<path d="M75.8215 38.1251C73.654 36.4517 72.4876 34.1106 72.3142 31.1016H78.2411C78.3435 32.5551 78.9583 33.6706 80.0853 34.4405C81.2124 35.2183 82.6389 35.6033 84.3729 35.6033C85.9334 35.6033 87.1235 35.3204 87.9353 34.7469C88.7471 34.1734 89.1569 33.3564 89.1569 32.2879C89.1569 31.6359 88.9914 31.1016 88.6604 30.7088C88.3294 30.316 87.9195 30.0175 87.4388 29.8289C86.9501 29.6404 86.1383 29.3576 84.9955 28.9726L81.3543 27.7785C79.4785 27.1578 77.9652 26.5529 76.8066 25.9637C75.6481 25.3744 74.6944 24.5731 73.9457 23.5518C73.1969 22.5305 72.8265 21.2264 72.8265 19.6394C72.8265 17.149 73.7329 15.1849 75.5535 13.7315C77.3741 12.2781 79.912 11.5553 83.1749 11.5553C86.4378 11.5553 89.0308 12.3881 91.08 14.0458C93.1213 15.7034 94.3193 18.0681 94.6661 21.1478H88.8417C88.6998 19.6237 88.1245 18.4845 87.0999 17.7303C86.0753 16.9683 84.7512 16.5912 83.1197 16.5912C81.7641 16.5912 80.7159 16.8583 79.975 17.3925C79.2263 17.9267 78.8558 18.6652 78.8558 19.5923C78.8558 20.2522 79.0608 20.7864 79.4785 21.1949C79.8962 21.6035 80.3297 21.902 80.7789 22.0748C81.2282 22.2477 82.04 22.5383 83.2222 22.9547L86.5482 24.0467C88.5895 24.7381 90.2209 25.4137 91.4347 26.0658C92.6484 26.7257 93.5942 27.5506 94.272 28.5562C94.9498 29.5618 95.2887 30.8581 95.2887 32.4451C95.2887 34.9983 94.3587 37.0017 92.5066 38.4551C90.6544 39.9085 88.0456 40.6313 84.6802 40.6313C80.9365 40.6313 77.981 39.7906 75.8136 38.1173L75.8215 38.1251Z" fill="white"/>
<path d="M104.833 38.7458C102.697 37.4809 101.074 35.729 99.9467 33.4821C98.8196 31.2352 98.26 28.6976 98.26 25.8615C98.26 23.0254 98.8748 20.3779 100.104 18.2174C101.334 16.057 103.013 14.4071 105.148 13.268C107.284 12.1288 109.696 11.5553 112.399 11.5553C115.276 11.5553 117.782 12.176 119.91 13.4251C122.038 14.6664 123.67 16.3712 124.797 18.5317C125.924 20.6921 126.484 23.1354 126.484 25.8615C126.484 28.9019 125.885 31.5337 124.687 33.7649C123.489 35.9961 121.826 37.693 119.698 38.8715C117.57 40.0499 115.134 40.6313 112.392 40.6313C109.483 40.6313 106.961 40.0028 104.825 38.7379L104.833 38.7458ZM118.145 32.7357C119.548 30.9602 120.249 28.6662 120.249 25.8694C120.249 23.0726 119.54 20.9435 118.114 19.2859C116.695 17.6282 114.788 16.7954 112.392 16.7954C109.996 16.7954 108.08 17.6282 106.646 19.2859C105.204 20.9435 104.486 23.1354 104.486 25.8694C104.486 28.8076 105.219 31.1331 106.693 32.8379C108.167 34.5505 110.067 35.4069 112.384 35.4069C114.701 35.4069 116.726 34.5191 118.129 32.7357H118.145Z" fill="white"/>
<path d="M131.276 39.8614V12.3959H136.217L136.737 16.4419C137.604 14.9885 138.865 13.8179 140.536 12.9145C142.199 12.0188 144.036 11.5632 146.045 11.5632C148.993 11.5632 151.35 12.4824 153.115 14.3129C154.881 16.1434 155.763 18.5945 155.763 21.6742V39.8692H149.624V21.9884C149.624 20.4329 149.135 19.1994 148.166 18.2803C147.196 17.3689 145.856 16.9054 144.162 16.9054C142.184 16.9054 140.576 17.5025 139.323 18.6966C138.077 19.8908 137.431 21.3992 137.399 23.2297V39.8692H131.26L131.276 39.8614Z" fill="white"/>
<path d="M189.565 28.7827H194.13V39.8697H189.565V28.7827Z" fill="white"/>
<path d="M163.478 28.7827H168.043V39.8697H163.478V28.7827Z" fill="white"/>
<path d="M194.13 35.3045V39.8697H163.478V35.3045L194.13 35.3045Z" fill="white"/>
</svg>
